{"title":"Wolf Of Wall Street 2013 DVDSCR x264 AC3-TiTAN","uid":9452971,"size":2563890632,"categoryP":"video","categoryS":"movies","magnet":"?xt=urn:btih:7ee26923dcdedb494aff5f2f20053a0fa1500b3e&amp;dn=Wolf+Of+Wall+Street+2013+DVDSCR+x264+AC3-TiTAN&amp;tr=udp%3A%2F%2Ftracker.openbittorrent.com%3A80&amp;tr=udp%3A%2F%2Fopen.demonii.com%3A1337&amp;tr=udp%3A%2F%2Ftracker.coppersurfer.tk%3A6969&amp;tr=udp%3A%2F%2Fexodus.desync.com%3A6969","seeders":6,"leechers":0,"uploader":"HeroMaster","files":-1,"time":1389210008,"description":":::::: TiTAN PRESENTS :::::::\n\n\n:::: Wolf Of Wall Street 2013 DVDSCR x264 AC3 TiTAN ::::\n\n\n::Information::\n \n\nWolf Of Wall Street 2013 DVDSCR \n\n &lt;a href=&quot;\nhttp://www.imdb.com/title/tt0993846/&quot; rel=&quot;nofollow&quot; target=&quot;_NEW&quot;&gt;\nhttp://www.imdb.com/title/tt0993846/&lt;/a&gt;\n\n\nSource  VOBS -AmStErDaM  THX\n\n\nNote: Ok this was an encoders nightmare.. souce was not great at all.. but vid was all there and line all the way thru..  So ran so many filters i can not even tell you..lol  Came out very watchable. Enjoy or wait for retail.\n\n\nGeneral\n\nFormat                                   : Matroska\nFormat version                           : Version 2\nFile size                                : 2.39 GiB\nDuration                                 : 3h 3mn\nOverall bit rate mode                    : Variable\nOverall bit rate                         : 1 858 Kbps\nEncoded date                             : UTC 2014-01-08 18:11:24\n\nVideo\n\nID                                       : 1\nFormat                                   : AVC\nFormat/Info                              : Advanced Video Codec\nFormat profile                           : &lt;a class=&quot;__cf_email__&quot; href=&quot;/cdn-cgi/l/email-protection&quot; data-cfemail=&quot;82caebe5eac2ceb6acb3&quot;&gt;[email&amp;#160;protected]&lt;/a&gt;&lt;script cf-hash='f9e31' type=&quot;text/javascript&quot;&gt;\n/* &lt;![CDATA[ */!function(){try{var t=&quot;currentScript&quot;in document?document.currentScript:function(){for(var t=document.getElementsByTagName(&quot;script&quot;),e=t.length;e--;)if(t[e].getAttribute(&quot;cf-hash&quot;))return t[e]}();if(t&amp;&amp;t.previousSibling){var e,r,n,i,c=t.previousSibling,a=c.getAttribute(&quot;data-cfemail&quot;);if(a){for(e=&quot;&quot;,r=parseInt(a.substr(0,2),16),n=2;a.length-n;n+=2)i=parseInt(a.substr(n,2),16)^r,e+=String.fromCharCode(i);e=document.createTextNode(e),c.parentNode.replaceChild(e,c)}}}catch(u){}}();/* ]]&gt; */&lt;/script&gt;\nFormat settings, CABAC                   : Yes\nFormat settings, ReFrames                : 3 frames\nCodec ID                                 : V_MPEG4/ISO/AVC\nDuration                                 : 3h 3mn\nBit rate mode                            : Variable\nBit rate                                 : 1 600 Kbps\nMaximum bit rate                         : 40.0 Mbps\nWidth                                    : 624 pixels\nHeight                                   : 256 pixels\nDisplay aspect ratio                     : 2.40:1\nFrame rate mode                          : Constant\nFrame rate                               : 23.976 fps\nColor space                              : YUV\nChroma subsampling                       : 4:2:0\nBit depth                                : 8 bits\nScan type                                : Progressive\nBits/(Pixel*Frame)                       : 0.418\nStream size                              : 2.01 GiB (84%)\nLanguage                                 : English\nDefault                                  : Yes\nForced                                   : No\nColor primaries                          : BT.709\nTransfer characteristics                 : BT.709\nMatrix coefficients                      : BT.709\n\nAudio\n\nID                                       : 2\nFormat                                   : AC-3\nFormat/Info                              : Audio Coding 3\nMode extension                           : CM (complete main)\nFormat settings, Endianness              : Big\nCodec ID                                 : A_AC3\nDuration                                 : 3h 3mn\nBit rate mode                            : Constant\nBit rate                                 : 256 Kbps\nChannel(s)                               : 2 channels\nChannel positions                        : Front: L R\nSampling rate                            : 48.0 KHz\nBit depth                                : 16 bits\nCompression mode                         : Lossy\nDelay relative to video                  : 64ms\nStream size                              : 337 MiB (14%)\nDefault                                  : Yes\nForced                                   : No\n\n\n::Greetz and Respect::\n\n\nALL CREDIT Goes to TiTAN For Encoding and ABG for Distribution.\n\n\n::Poster::\n\n &lt;a href=&quot;\nhttp://i.imgur.com/2m2CuVn.jpg&quot; rel=&quot;nofollow&quot; target=&quot;_NEW&quot;&gt;\nhttp://i.imgur.com/2m2CuVn.jpg&lt;/a&gt;\n\n\n::Screenshots::\n\n &lt;a href=&quot;\nhttp://i.imgur.com/18z2ciF.png&quot; rel=&quot;nofollow&quot; target=&quot;_NEW&quot;&gt;\nhttp://i.imgur.com/18z2ciF.png&lt;/a&gt;\n\n &lt;a href=&quot;\nhttp://i.imgur.com/ebXJnlv.png&quot; rel=&quot;nofollow&quot; target=&quot;_NEW&quot;&gt;\nhttp://i.imgur.com/ebXJnlv.png&lt;/a&gt;\n\n &lt;a href=&quot;\nhttp://i.imgur.com/FXRSBl6.png&quot; rel=&quot;nofollow&quot; target=&quot;_NEW&quot;&gt;\nhttp://i.imgur.com/FXRSBl6.png&lt;/a&gt;\n\n\nSEED AND ENJOY!","torrent":{"xt":"urn:btih:7ee26923dcdedb494aff5f2f20053a0fa1500b3e","amp;dn":"Wolf+Of+Wall+Street+2013+DVDSCR+x264+AC3-TiTAN","amp;tr":["udp%3A%2F%2Ftracker.openbittorrent.com%3A80","udp%3A%2F%2Fopen.demonii.com%3A1337","udp%3A%2F%2Ftracker.coppersurfer.tk%3A6969","udp%3A%2F%2Fexodus.desync.com%3A6969"],"infoHash":"7ee26923dcdedb494aff5f2f20053a0fa1500b3e","infoHashBuffer":{"type":"Buffer","data":[126,226,105,35,220,222,219,73,74,255,95,47,32,5,58,15,161,80,11,62]},"announce":[],"urlList":[]}}